<svg fill="none" height="27" width="138" xmlns="http://www.w3.org/2000/svg"><path d="M53.248 7.53h3.832c-.056-3.37-2.826-5.698-7.036-5.698-4.145 0-7.183 2.29-7.165 5.725-.009 2.788 1.958 4.385 5.152 5.152l2.06.517c2.058.498 3.203 1.09 3.212 2.363-.009 1.385-1.32 2.327-3.351 2.327-2.078 0-3.573-.96-3.703-2.853h-3.868c.101 4.09 3.028 6.205 7.617 6.205 4.616 0 7.33-2.207 7.34-5.67-.01-3.148-2.382-4.819-5.669-5.558l-1.699-.406c-1.643-.378-3.019-.988-2.991-2.345 0-1.219 1.08-2.114 3.037-2.114 1.912 0 3.084.868 3.232 2.354zm14.249-.712h-2.669V3.42h-3.933v3.398h-1.939v2.955h1.94v7.386c-.02 2.78 1.873 4.155 4.726 4.035a7.651 7.651 0 0 0 2.133-.37l-.618-2.926c-.194.037-.61.129-.98.129-.784 0-1.329-.295-1.329-1.385v-6.87h2.669zm6.606 14.45c2.096 0 3.453-.914 4.146-2.235h.11V21h3.73v-9.565c0-3.38-2.862-4.801-6.02-4.801-3.397 0-5.632 1.625-6.176 4.21l3.638.295c.267-.942 1.107-1.634 2.52-1.634 1.339 0 2.105.674 2.105 1.837v.056c0 .914-.97 1.034-3.435 1.274-2.806.258-5.327 1.2-5.327 4.367 0 2.807 2.004 4.229 4.709 4.229zm1.126-2.715c-1.21 0-2.077-.563-2.077-1.643 0-1.108.914-1.653 2.299-1.847.859-.12 2.262-.323 2.733-.637v1.505c0 1.487-1.228 2.622-2.955 2.622zM85.141 21h3.933v-8.023c0-1.746 1.274-2.946 3.01-2.946.545 0 1.293.093 1.662.213v-3.49a5.903 5.903 0 0 0-1.237-.139c-1.588 0-2.89.923-3.407 2.678h-.148V6.818h-3.813zm18.893-14.182h-2.668V3.42h-3.934v3.398h-1.939v2.955h1.94v7.386c-.02 2.78 1.874 4.155 4.727 4.035a7.65 7.65 0 0 0 2.132-.37l-.618-2.926c-.194.037-.61.129-.979.129-.785 0-1.329-.295-1.329-1.385v-6.87h2.668zm11.656 8.144c.01 1.902-1.292 2.899-2.705 2.899-1.486 0-2.447-1.043-2.456-2.715V6.818h-3.933v9.03c.009 3.315 1.948 5.337 4.801 5.337 2.133 0 3.666-1.1 4.303-2.761h.147V21h3.777V6.818h-3.934zm7.08 11.356h3.933v-7.59h.12c.545 1.182 1.736 2.503 4.026 2.503 3.231 0 5.752-2.558 5.752-7.303 0-4.875-2.632-7.294-5.743-7.294-2.373 0-3.509 1.412-4.035 2.566h-.175V6.818h-3.878zm3.85-12.409c0-2.53 1.071-4.146 2.982-4.146 1.948 0 2.982 1.69 2.982 4.146 0 2.474-1.052 4.192-2.982 4.192-1.893 0-2.982-1.662-2.982-4.192z" fill="#fff"/><g fill="#4a6cf7"><path d="M0 0c13.807 0 25 11.193 25 25H2a2 2 0 0 1-2-2z"/><path d="M6 25C6 11.193 17.193 0 31 0v23a2 2 0 0 1-2 2z" opacity=".5"/></g></svg>