<svg xmlns="http://www.w3.org/2000/svg" xmlns:xlink="http://www.w3.org/1999/xlink" viewBox="0 0 279.72 335.77"><defs><style>.cls-1,.cls-101,.cls-103,.cls-105,.cls-107,.cls-109,.cls-110,.cls-113,.cls-116,.cls-118,.cls-120,.cls-2,.cls-23,.cls-36,.cls-38,.cls-40,.cls-45,.cls-47,.cls-51,.cls-57,.cls-62,.cls-70,.cls-72,.cls-75,.cls-78,.cls-80,.cls-83,.cls-90,.cls-92,.cls-93{mix-blend-mode:screen;}.cls-1{fill:url(#radial-gradient);}.cls-2{fill:url(#radial-gradient-2);}.cls-10,.cls-11,.cls-15,.cls-22,.cls-24,.cls-3,.cls-31,.cls-32,.cls-33,.cls-39,.cls-4,.cls-41,.cls-42,.cls-49,.cls-5,.cls-6,.cls-64,.cls-66,.cls-67,.cls-7,.cls-76,.cls-87{mix-blend-mode:multiply;}.cls-3{fill:url(#radial-gradient-3);}.cls-4{fill:url(#radial-gradient-4);}.cls-5{fill:url(#radial-gradient-5);}.cls-6{fill:url(#radial-gradient-6);}.cls-7{fill:url(#radial-gradient-7);}.cls-8{fill:url(#radial-gradient-8);}.cls-9{fill:url(#radial-gradient-9);}.cls-10{fill:url(#radial-gradient-10);}.cls-11{fill:url(#radial-gradient-11);}.cls-12{fill:none;}.cls-13{isolation:isolate;}.cls-14{mask:url(#mask);}.cls-15{fill:url(#radial-gradient-12);}.cls-16{clip-path:url(#clip-path);}.cls-17{fill:url(#radial-gradient-13);}.cls-18{fill:url(#radial-gradient-14);}.cls-19{fill:url(#linear-gradient);}.cls-121,.cls-20,.cls-25,.cls-26,.cls-29,.cls-53,.cls-54,.cls-99{mix-blend-mode:overlay;}.cls-21{fill:url(#radial-gradient-15);}.cls-22{fill:url(#radial-gradient-16);}.cls-24{fill:url(#radial-gradient-17);}.cls-110,.cls-25,.cls-26,.cls-39,.cls-41,.cls-42,.cls-53,.cls-87,.cls-99{opacity:0.75;}.cls-25{fill:url(#radial-gradient-18);}.cls-26{fill:url(#radial-gradient-19);}.cls-27{fill:url(#radial-gradient-20);}.cls-28,.cls-29{fill:url(#linear-gradient-3);}.cls-30{fill:url(#radial-gradient-21);}.cls-31{fill:url(#radial-gradient-22);}.cls-32{fill:url(#radial-gradient-23);}.cls-33{fill:url(#radial-gradient-24);}.cls-34{fill:url(#radial-gradient-25);}.cls-35{fill:url(#linear-gradient-5);}.cls-36{fill:url(#radial-gradient-26);}.cls-37{fill:url(#radial-gradient-27);}.cls-38{fill:url(#radial-gradient-28);}.cls-39{fill:url(#radial-gradient-29);}.cls-40{fill:url(#radial-gradient-30);}.cls-41{fill:url(#radial-gradient-31);}.cls-42{fill:#c89472;}.cls-43{fill:url(#linear-gradient-6);}.cls-44{fill:url(#linear-gradient-7);}.cls-45{fill:url(#radial-gradient-32);}.cls-46{fill:url(#radial-gradient-33);}.cls-47{fill:url(#radial-gradient-34);}.cls-48{fill:url(#linear-gradient-8);}.cls-49{fill:url(#radial-gradient-35);}.cls-50{mask:url(#mask-2);}.cls-51{fill:#fff;}.cls-52{fill:url(#linear-gradient-9);}.cls-53{fill:url(#linear-gradient-10);}.cls-54{fill:url(#linear-gradient-11);}.cls-55{fill:url(#linear-gradient-12);}.cls-56{fill:url(#linear-gradient-13);}.cls-57{fill:url(#radial-gradient-36);}.cls-58{fill:url(#linear-gradient-14);}.cls-59{fill:url(#linear-gradient-15);}.cls-60{fill:url(#linear-gradient-16);}.cls-61{fill:url(#linear-gradient-17);}.cls-62{fill:url(#radial-gradient-37);}.cls-63{fill:url(#linear-gradient-18);}.cls-64{fill:url(#linear-gradient-19);}.cls-65{fill:#fdf5db;}.cls-66{fill:url(#radial-gradient-38);}.cls-67{fill:url(#radial-gradient-39);}.cls-68{fill:url(#linear-gradient-20);}.cls-69{fill:url(#radial-gradient-40);}.cls-70{fill:url(#radial-gradient-41);}.cls-71{fill:#f4be52;}.cls-72{fill:url(#radial-gradient-42);}.cls-73{fill:url(#linear-gradient-21);}.cls-74{fill:url(#linear-gradient-22);}.cls-75{fill:url(#radial-gradient-43);}.cls-76,.cls-87{fill:#d39f10;}.cls-77{fill:#f4c229;}.cls-78{fill:url(#radial-gradient-44);}.cls-79{fill:url(#radial-gradient-45);}.cls-80{fill:url(#radial-gradient-46);}.cls-81{fill:url(#linear-gradient-23);}.cls-82{fill:url(#radial-gradient-47);}.cls-83{fill:url(#radial-gradient-48);}.cls-84{fill:url(#radial-gradient-49);}.cls-85{fill:url(#linear-gradient-24);}.cls-86{fill:url(#radial-gradient-50);}.cls-88{fill:#6a2e25;}.cls-89{fill:url(#linear-gradient-25);}.cls-90{fill:url(#radial-gradient-51);}.cls-91{fill:url(#linear-gradient-26);}.cls-121,.cls-92,.cls-93{opacity:0.55;}.cls-92{fill:url(#linear-gradient-27);}.cls-93{fill:url(#linear-gradient-28);}.cls-94{fill:#7e5436;}.cls-95{fill:url(#linear-gradient-29);}.cls-96{fill:url(#linear-gradient-30);}.cls-97{fill:url(#linear-gradient-31);}.cls-98{fill:url(#linear-gradient-32);}.cls-99{fill:url(#radial-gradient-52);}.cls-100{mask:url(#mask-3);}.cls-101{fill:url(#radial-gradient-53);}.cls-102{mask:url(#mask-4);}.cls-103{fill:url(#radial-gradient-54);}.cls-104{mask:url(#mask-5);}.cls-105{fill:url(#radial-gradient-55);}.cls-106{mask:url(#mask-6);}.cls-107{fill:url(#radial-gradient-56);}.cls-108{mask:url(#mask-7);}.cls-109{fill:url(#radial-gradient-57);}.cls-111,.cls-114{mix-blend-mode:color-dodge;}.cls-111{fill:url(#radial-gradient-58);}.cls-112{mask:url(#mask-8);}.cls-113{fill:url(#radial-gradient-59);}.cls-114{fill:url(#radial-gradient-60);}.cls-115{mask:url(#mask-9);}.cls-116{fill:url(#radial-gradient-61);}.cls-117{mask:url(#mask-10);}.cls-118{fill:url(#radial-gradient-62);}.cls-119{mask:url(#mask-11);}.cls-120{fill:url(#radial-gradient-63);}.cls-121{fill:url(#radial-gradient-64);}</style><radialGradient id="radial-gradient" cx="140.32" cy="421.27" r="28.09" gradientTransform="translate(-556.85 55.59) scale(4.98 0.59)" gradientUnits="userSpaceOnUse"><stop offset="0" stop-color="#fff"/><stop offset="0.07" stop-color="#e9e9e9"/><stop offset="0.33" stop-color="#979797"/><stop offset="0.57" stop-color="#565656"/><stop offset="0.76" stop-color="#282828"/><stop offset="0.91" stop-color="#0b0b0b"/><stop offset="1"/></radialGradient><radialGradient id="radial-gradient-2" cx="167.05" cy="25.07" r="25.25" gradientUnits="userSpaceOnUse"><stop offset="0.01" stop-color="#fff"/><stop offset="1"/></radialGradient><radialGradient id="radial-gradient-3" cx="350.29" cy="6.51" r="10.35" gradientTransform="matrix(0.73, -0.44, 0.71, 1.18, -110.94, 374.39)" gradientUnits="userSpaceOnUse"><stop offset="0" stop-color="#fff"/><stop offset="0.14" stop-color="#e2e2e2"/><stop offset="0.43" stop-color="#999"/><stop offset="0.87" stop-color="#262626"/><stop offset="1"/></radialGradient><radialGradient id="radial-gradient-4" cx="375.3" cy="-41.69" r="7.57" gradientTransform="matrix(0.54, -0.33, 0.71, 1.18, -34.36, 328.45)" xlink:href="#radial-gradient-3"/><radialGradient id="radial-gradient-5" cx="631.16" cy="-90.11" r="18.09" gradientTransform="matrix(0.54, -0.33, 0.71, 1.18, -34.36, 328.45)" xlink:href="#radial-gradient-3"/><radialGradient id="radial-gradient-6" cx="339.92" cy="-163.06" r="18.13" gradientTransform="matrix(0.54, -0.33, 0.71, 1.18, -34.36, 328.45)" xlink:href="#radial-gradient-3"/><radialGradient id="radial-gradient-7" cx="944.72" cy="-29.07" r="31.52" gradientTransform="matrix(0, -0.64, 1.38, 0.01, 217.79, 605.17)" xlink:href="#radial-gradient-3"/><radialGradient id="radial-gradient-8" cx="180.84" cy="23.69" r="14.3" gradientTransform="translate(0 -21.41) scale(1 1.11)" gradientUnits="userSpaceOnUse"><stop offset="0" stop-color="#fff"/><stop offset="0.21" stop-color="#c4c4c4"/><stop offset="0.6" stop-color="#5c5c5c"/><stop offset="0.87" stop-color="#1a1a1a"/><stop offset="1"/></radialGradient><radialGradient id="radial-gradient-9" cx="150.17" cy="226.31" r="14.3" xlink:href="#radial-gradient-8"/><radialGradient id="radial-gradient-10" cx="876.07" cy="-119.24" r="36.98" gradientTransform="matrix(0.25, -0.58, 1.08, 0.47, 68.62, 600.28)" xlink:href="#radial-gradient-3"/><radialGradient id="radial-gradient-11" cx="478.05" cy="-70.3" r="17.46" gradientTransform="matrix(0.25, -0.58, 1.08, 0.47, 68.62, 600.28)" xlink:href="#radial-gradient-3"/><mask id="mask" x="0" y="302.79" width="279.72" height="32.98" maskUnits="userSpaceOnUse"><g transform="translate(0 15.05)"><path class="cls-1" d="M279.72,304.23c0,9.11-62.62,16.49-139.86,16.49S0,313.34,0,304.23s62.61-16.48,139.86-16.48S279.72,295.13,279.72,304.23Z"/></g></mask><radialGradient id="radial-gradient-12" cx="140.32" cy="421.27" r="28.09" gradientTransform="translate(-556.85 55.59) scale(4.98 0.59)" gradientUnits="userSpaceOnUse"><stop offset="0.58" stop-color="#a4816a"/><stop offset="0.65" stop-color="#ae8f7a"/><stop offset="0.78" stop-color="#c9b3a3"/><stop offset="0.96" stop-color="#f5ece4"/><stop offset="1" stop-color="#fffaf4"/></radialGradient><clipPath id="clip-path" transform="translate(0 15.05)"><path class="cls-12" d="M239.45,3A21.36,21.36,0,0,0,232,.32a27.84,27.84,0,0,0-5.27-.3c-.86,0-1.7.1-2.53.2a40.25,40.25,0,0,0-18.76,8A49.81,49.81,0,0,0,200,14.12c0-.34,0-.71-.06-1-.11-1.89-.24-3.38-.35-4.53a1.23,1.23,0,0,0,0-.2h.13a2.22,2.22,0,0,0,2.06-1.3.2.2,0,0,1,0-.08,5.17,5.17,0,0,0-4.92-7H81.77a5.17,5.17,0,0,0-4.91,7l0,.08A2.24,2.24,0,0,0,79,8.35h1.22c0,.06,0,.15,0,.22-.13,1.34-.28,3.21-.4,5.55a49.81,49.81,0,0,0-5.51-5.89A41.11,41.11,0,0,0,62.42,1.84,33.25,33.25,0,0,0,53,0a27.94,27.94,0,0,0-5.28.3,18.89,18.89,0,0,0-2.44.55c-.41.12-.82.26-1.24.41A22.41,22.41,0,0,0,40.27,3c-.41.24-.82.49-1.22.76a24.47,24.47,0,0,0-3.49,2.8c-.36.35-.73.72-1.08,1.11-4.21,4.59-7.16,11.26-6.74,20,.28,5.81,2.07,12.52,6,20.11.49,1,1,1.91,1.57,2.89,1.13,2,2.36,3.93,3.67,5.81a81.28,81.28,0,0,0,6.4,8.05,86.47,86.47,0,0,0,7.35,7.23A186.41,186.41,0,0,0,98,100.58a124.14,124.14,0,0,0,27.63,34.59h-.16l-.94,1.83h0l-2.27,4.39.37.2.51.29.07,0c.21.11.43.24.68.39l0,0,.72.43.18.11.8.51.2.13.86.58,0,0,.85.6a1.09,1.09,0,0,0,.17.13c.28.21.55.42.81.64l.15.13c.26.22.52.45.75.67a4.38,4.38,0,0,1,.63.84c0,.07.08.13.11.2a10.48,10.48,0,0,1,.5,1.06c.05.14.11.29.17.44l.26.69c.12.33.25.67.37,1h-.23a8.67,8.67,0,0,0-3.19,5.59,7.19,7.19,0,0,0,0,.92h0s0,0,0,0a8.07,8.07,0,0,0,.07,1.11c.46,3.6,3.13,6.05,6.32,7.3-.16,1.27-.35,2.64-.56,4.09h0c-2.12,14.49-6.9,37.85-16.76,52.25h-3.25s-11.58.93-11.58,13.6h-.11c-7.71,0-14,7.25-14,16.2v32H86.4a4.22,4.22,0,0,0-3.9,2.63l-2.58,6.33H77.35a3.55,3.55,0,0,0-3.3,2.76l-1.47,7.15H206.29l-1.47-7.15a3.54,3.54,0,0,0-3.3-2.76H199.8l-2.58-6.33a4.2,4.2,0,0,0-3.9-2.63h-1.75v-32c0-9-6.25-16.2-14-16.2h-.11c0-12.67-11.57-13.6-11.57-13.6h-3.26C152.9,207.55,148.12,184.53,146,170h0c-.22-1.5-.42-2.91-.59-4.21a2.64,2.64,0,0,0,.56-.19,2.49,2.49,0,0,0,.85-1l.61-.37,0,0a9.55,9.55,0,0,0,.8-.57l.09-.07.67-.58.13-.13c.19-.19.37-.38.54-.58l.17-.2c.15-.18.29-.37.43-.56l.18-.28c.11-.18.23-.35.33-.54s.11-.23.17-.35.17-.33.24-.51l.15-.42c.05-.16.11-.32.15-.48a4,4,0,0,0,.11-.5l.09-.43c0-.21,0-.41,0-.62s0-.23,0-.35a8.15,8.15,0,0,0-.05-1h0v0a8.7,8.7,0,0,0-3.2-5.57h-.16c.66-1.78,1.18-3.41,2-4.24.23-.22.49-.45.76-.68l.14-.12c.26-.21.53-.43.81-.64l.18-.13.85-.61,0,0,.88-.59.19-.12.8-.51.18-.1.72-.44,0,0,.68-.39.07,0,.51-.29.37-.2-.1-.21.1,0h-.11l-3.1-6h-.22a124.32,124.32,0,0,0,27.63-34.59A186.52,186.52,0,0,0,227,71.74q2.6-2.26,5-4.72a84.56,84.56,0,0,0,6.74-7.79c.69-.91,1.36-1.83,2-2.77,1.3-1.88,2.53-3.82,3.67-5.81.55-1,1.07-1.94,1.56-2.89a54.07,54.07,0,0,0,5.52-15.84C253.93,17.24,247.19,7.53,239.45,3ZM90.21,86.71c-1.2-.61-2.51-1.3-3.91-2.07l-.11-.06c-1.41-.78-2.9-1.65-4.45-2.6l-.12-.08c-1.55-1-3.15-2-4.78-3.12l-.17-.12c-1.62-1.12-3.26-2.33-4.9-3.62l-.24-.19c-.81-.64-1.62-1.3-2.42-2h0a75.42,75.42,0,0,1-12.91-14c-7.4-10.54-11.66-21-12.55-29.35A20.56,20.56,0,0,1,44.88,19,11.16,11.16,0,0,1,46,17.06a9.83,9.83,0,0,1,5.33-3.76c10.44-3.13,20.91,13.34,28.29,15.56.49,15.43,3.14,36.91,12.08,58.58l-1.39-.68A.31.31,0,0,0,90.21,86.71ZM79.07,25.42l.47-.05v.23Zm121.11-.05.49.05-.49.19ZM194,70.18c1-3.48,1.79-6.91,2.49-10.26s1.28-6.64,1.76-9.82.85-6.26,1.13-9.22c.42-4.3.66-8.33.78-12,7.26-2.15,17.53-18.15,27.8-15.68l.48.12c12.17,3.65,9.94,24.53-4.87,45.62C213,73.94,196.59,83.3,188,87.44A150.24,150.24,0,0,0,194,70.18Z"/></clipPath><radialGradient id="radial-gradient-13" cx="142.21" cy="52.11" r="93.62" gradientUnits="userSpaceOnUse"><stop offset="0.01" stop-color="#ffd44a"/><stop offset="0.54" stop-color="#ffea72"/><stop offset="0.57" stop-color="#fee471"/><stop offset="0.61" stop-color="#fbd46e"/><stop offset="0.65" stop-color="#f6ba68"/><stop offset="0.7" stop-color="#ef9561"/><stop offset="0.71" stop-color="#ee9060"/><stop offset="0.96" stop-color="#ffd44a"/></radialGradient><radialGradient id="radial-gradient-14" cx="-237.77" cy="52.25" r="72.7" gradientTransform="matrix(-1, 0, 0, 1, -86.7, 0)" gradientUnits="userSpaceOnUse"><stop offset="0.02" stop-color="#bd4a00"/><stop offset="1" stop-color="#864a00"/></radialGradient><linearGradient id="linear-gradient" x1="251.36" y1="39.56" x2="188.44" y2="54.02" gradientUnits="userSpaceOnUse"><stop offset="0" stop-color="#efc16b"/><stop offset="0.08" stop-color="#c38f4b"/><stop offset="0.12" stop-color="#aa7238"/><stop offset="0.25" stop-color="#c08443"/><stop offset="0.35" stop-color="#c28543"/><stop offset="0.39" stop-color="#c98943"/><stop offset="0.41" stop-color="#d48f42"/><stop offset="0.42" stop-color="#db9342"/><stop offset="0.66" stop-color="#ac6838"/><stop offset="0.89" stop-color="#f0c46c"/><stop offset="0.93" stop-color="#efc26b"/><stop offset="0.96" stop-color="#ecb967"/><stop offset="0.98" stop-color="#e7ab60"/><stop offset="0.99" stop-color="#df9856"/><stop offset="1" stop-color="#dc8f52"/></linearGradient><radialGradient id="radial-gradient-15" cx="142.22" cy="52.11" r="93.62" xlink:href="#radial-gradient-13"/><radialGradient id="radial-gradient-16" cx="142.22" cy="52.11" r="93.62" gradientUnits="userSpaceOnUse"><stop offset="0" stop-color="#bd4a00"/><stop offset="0.62" stop-color="#ffea72"/></radialGradient><radialGradient id="radial-gradient-17" cx="112.99" cy="82.16" r="25.67" gradientUnits="userSpaceOnUse"><stop offset="0" stop-color="#ffffc3"/><stop offset="0.95" stop-color="#ffea72"/></radialGradient><radialGradient id="radial-gradient-18" cx="34.87" cy="40.83" r="57.4" xlink:href="#radial-gradient-17"/><radialGradient id="radial-gradient-19" cx="-60.44" cy="40.83" r="57.4" gradientTransform="matrix(-1, 0, 0, 1, 184.41, 0)" xlink:href="#radial-gradient-17"/><radialGradient id="radial-gradient-20" cx="128.68" cy="52.25" r="72.7" gradientTransform="matrix(1, 0, 0, 1, 0, 0)" xlink:href="#radial-gradient-14"/><linearGradient id="linear-gradient-3" x1="265.85" y1="39.56" x2="202.93" y2="54.02" gradientTransform="matrix(-1, 0, 0, 1, 294.21, 0)" xlink:href="#linear-gradient"/><radialGradient id="radial-gradient-21" cx="140.69" cy="0.35" r="130.95" gradientUnits="userSpaceOnUse"><stop offset="0" stop-color="#f4be52"/><stop offset="0.62" stop-color="#ffea72"/></radialGradient><radialGradient id="radial-gradient-22" cx="140.69" cy="0.35" r="130.95" xlink:href="#radial-gradient-16"/><radialGradient id="radial-gradient-23" cx="142.47" cy="2.51" r="139.53" xlink:href="#radial-gradient-16"/><radialGradient id="radial-gradient-24" cx="142.47" cy="2.51" r="139.53" xlink:href="#radial-gradient-17"/><radialGradient id="radial-gradient-25" cx="177.79" cy="0.35" r="130.95" gradientTransform="translate(14.2) scale(0.71 1)" xlink:href="#radial-gradient-21"/><linearGradient id="linear-gradient-5" x1="139.86" y1="134.31" x2="139.86" y2="6.44" gradientUnits="userSpaceOnUse"><stop offset="0" stop-color="#aa7238"/><stop offset="0.25" stop-color="#c08443"/><stop offset="0.35" stop-color="#be8242"/><stop offset="0.39" stop-color="#b87b3d"/><stop offset="0.42" stop-color="#ad7036"/><stop offset="0.44" stop-color="#9d5f2b"/><stop offset="0.46" stop-color="#88491d"/><stop offset="0.47" stop-color="#7a3a14"/><stop offset="0.64" stop-color="#7c3c15"/><stop offset="0.72" stop-color="#83441a"/><stop offset="0.79" stop-color="#8e5123"/><stop offset="0.85" stop-color="#9e642f"/><stop offset="0.9" stop-color="#b37c3e"/><stop offset="0.95" stop-color="#cd9b52"/><stop offset="0.99" stop-color="#ebbe68"/><stop offset="1" stop-color="#f0c46c"/></linearGradient><radialGradient id="radial-gradient-26" cx="142.98" cy="6.82" r="112.74" gradientUnits="userSpaceOnUse"><stop offset="0.01" stop-color="#f6c054"/><stop offset="0.54" stop-color="#ffea72"/><stop offset="0.58" stop-color="#fff071"/><stop offset="0.59" stop-color="#fff171"/><stop offset="0.82" stop-color="#ffe05a"/><stop offset="0.96" stop-color="#ffd44a"/></radialGradient><radialGradient id="radial-gradient-27" cx="143.51" cy="6.82" r="112.74" gradientTransform="translate(30) scale(0.79 1)" xlink:href="#radial-gradient-26"/><radialGradient id="radial-gradient-28" cx="142.52" cy="16" r="92.03" xlink:href="#radial-gradient-26"/><radialGradient id="radial-gradient-29" cx="102.29" cy="19.65" r="61.62" xlink:href="#radial-gradient-26"/><radialGradient id="radial-gradient-30" cx="286.72" cy="6.82" r="112.74" gradientTransform="translate(32.16) scale(0.39 1)" xlink:href="#radial-gradient-26"/><radialGradient id="radial-gradient-31" cx="130.52" cy="59.4" r="58.61" xlink:href="#radial-gradient-26"/><linearGradient id="linear-gradient-6" x1="76.81" y1="4.17" x2="202.45" y2="4.17" gradientUnits="userSpaceOnUse"><stop offset="0.01" stop-color="#ffd44a"/><stop offset="0.11" stop-color="#f5f09f"/><stop offset="0.19" stop-color="#f5ee9d"/><stop offset="0.21" stop-color="#f4e996"/><stop offset="0.24" stop-color="#f3de8b"/><stop offset="0.25" stop-color="#f1d07a"/><stop offset="0.26" stop-color="#f0c46c"/><stop offset="0.31" stop-color="#efc26a"/><stop offset="0.34" stop-color="#edbb61"/><stop offset="0.36" stop-color="#eaaf53"/><stop offset="0.37" stop-color="#e8aa4d"/><stop offset="0.51" stop-color="#fce16d"/><stop offset="0.54" stop-color="#ffea72"/><stop offset="0.58" stop-color="#fde473"/><stop offset="0.64" stop-color="#f9d476"/><stop offset="0.7" stop-color="#f2ba7c"/><stop offset="0.71" stop-color="#f1b87c"/><stop offset="0.96" stop-color="#ffd44a"/></linearGradient><linearGradient id="linear-gradient-7" x1="162.28" y1="19.22" x2="187.25" y2="19.22" gradientUnits="userSpaceOnUse"><stop offset="0.54" stop-color="#ffea72"/><stop offset="0.66" stop-color="#ffe76c"/><stop offset="0.83" stop-color="#ffde5c"/><stop offset="0.96" stop-color="#ffd44a"/></linearGradient><radialGradient id="radial-gradient-32" cx="173.37" cy="19.22" r="9.24" xlink:href="#radial-gradient-26"/><radialGradient id="radial-gradient-33" cx="139.31" cy="4.17" r="44.52" gradientUnits="userSpaceOnUse"><stop offset="0.01" stop-color="#f6c054"/><stop offset="0.54" stop-color="#ffea72"/><stop offset="0.66" stop-color="#ffe76c"/><stop offset="0.83" stop-color="#ffde5c"/><stop offset="0.96" stop-color="#ffd44a"/></radialGradient><radialGradient id="radial-gradient-34" cx="139.31" cy="34.52" r="44.52" gradientTransform="translate(0 -22.91) scale(1 0.81)" xlink:href="#radial-gradient-26"/><linearGradient id="linear-gradient-8" x1="94.03" y1="20.02" x2="126.82" y2="20.02" gradientUnits="userSpaceOnUse"><stop offset="0" stop-color="#aa7238"/><stop offset="0.25" stop-color="#c08443"/><stop offset="0.35" stop-color="#be8242"/><stop offset="0.39" stop-color="#b87b3d"/><stop offset="0.42" stop-color="#ad7036"/><stop offset="0.44" stop-color="#9d5f2b"/><stop offset="0.46" stop-color="#88491d"/><stop offset="0.47" stop-color="#7a3a14"/><stop offset="0.5" stop-color="#7f4018"/><stop offset="0.56" stop-color="#8e5223"/><stop offset="0.62" stop-color="#a76f36"/><stop offset="0.69" stop-color="#ca974f"/><stop offset="0.76" stop-color="#f0c46c"/></linearGradient><radialGradient id="radial-gradient-35" cx="141.15" cy="23.98" r="114.83" gradientUnits="userSpaceOnUse"><stop offset="0.38" stop-color="#ffea72"/><stop offset="0.45" stop-color="#fade69"/><stop offset="0.59" stop-color="#ecbd52"/><stop offset="0.74" stop-color="#da9032"/></radialGradient><mask id="mask-2" x="144.1" y="12.75" width="45.88" height="54.73" maskUnits="userSpaceOnUse"><g transform="translate(0 15.05)"><polygon class="cls-2" points="167.88 24.85 179.63 15.21 170.42 27.3 189.99 28.51 170.48 30.83 189.99 52.44 168.03 33.37 166.55 48.49 164.51 33.43 154.02 42.31 161.97 30.98 144.1 29.5 161.91 27.46 148.7 12.15 164.35 24.92 165.84 -2.3 167.88 24.85"/></g></mask><linearGradient id="linear-gradient-9" x1="150.01" y1="153.32" x2="130.82" y2="153.32" gradientUnits="userSpaceOnUse"><stop offset="0" stop-color="#ffea72"/><stop offset="0.75" stop-color="#f1aa00"/><stop offset="0.89" stop-color="#f4be52"/></linearGradient><linearGradient id="linear-gradient-10" x1="155.5" y1="132.43" x2="155.44" y2="159.37" xlink:href="#radial-gradient-17"/><linearGradient id="linear-gradient-11" x1="124.31" y1="132.36" x2="124.25" y2="159.31" xlink:href="#radial-gradient-17"/><linearGradient id="linear-gradient-12" x1="149.49" y1="138.28" x2="123.32" y2="138.28" xlink:href="#linear-gradient-5"/><linearGradient id="linear-gradient-13" x1="133.5" y1="138.15" x2="141.59" y2="138.7" gradientUnits="userSpaceOnUse"><stop offset="0" stop-color="#aa7238"/><stop offset="0.25" stop-color="#c08443"/><stop offset="0.35" stop-color="#be8242"/><stop offset="0.39" stop-color="#b87b3d"/><stop offset="0.42" stop-color="#ad7036"/><stop offset="0.44" stop-color="#9d5f2b"/><stop offset="0.46" stop-color="#88491d"/><stop offset="0.47" stop-color="#7a3a14"/><stop offset="0.57" stop-color="#7d3d16"/><stop offset="0.66" stop-color="#86481d"/><stop offset="0.74" stop-color="#955a28"/><stop offset="0.83" stop-color="#ab7338"/><stop offset="0.91" stop-color="#c6934d"/><stop offset="0.98" stop-color="#e8ba66"/><stop offset="1" stop-color="#f0c46c"/></linearGradient><radialGradient id="radial-gradient-36" cx="106.11" cy="138.28" r="5.77" gradientTransform="matrix(-1, 0, 0, 1, 245.43, 0)" xlink:href="#radial-gradient-26"/><linearGradient id="linear-gradient-14" x1="150" y1="138.28" x2="130.82" y2="138.28" gradientUnits="userSpaceOnUse"><stop offset="0" stop-color="#ffe791"/><stop offset="0.11" stop-color="#ffd951"/><stop offset="0.22" stop-color="#ffcc17"/><stop offset="0.27" stop-color="#ffc700"/><stop offset="0.48" stop-color="#ffd233"/><stop offset="0.72" stop-color="#fd6"/><stop offset="0.9" stop-color="#ffe485"/><stop offset="1" stop-color="#ffe791"/></linearGradient><linearGradient id="linear-gradient-15" x1="150.01" y1="149.58" x2="130.82" y2="149.58" xlink:href="#linear-gradient-9"/><linearGradient id="linear-gradient-16" x1="145.72" y1="150.01" x2="131.53" y2="150.01" xlink:href="#linear-gradient-14"/><linearGradient id="linear-gradient-17" x1="143.15" y1="149.23" x2="149.05" y2="149.86" xlink:href="#linear-gradient-5"/><radialGradient id="radial-gradient-37" cx="139.9" cy="149.58" r="10.91" xlink:href="#radial-gradient-26"/><linearGradient id="linear-gradient-18" x1="134.78" y1="148.03" x2="139.81" y2="147.33" xlink:href="#linear-gradient-13"/><linearGradient id="linear-gradient-19" x1="139.5" y1="153.61" x2="139.89" y2="141.82" gradientUnits="userSpaceOnUse"><stop offset="0" stop-color="#ffffc3"/><stop offset="0.42" stop-color="#ecc972"/></linearGradient><radialGradient id="radial-gradient-38" cx="143.32" cy="141.27" r="16.84" xlink:href="#radial-gradient-17"/><radialGradient id="radial-gradient-39" cx="143.16" cy="143.79" r="20.38" xlink:href="#linear-gradient-19"/><linearGradient id="linear-gradient-20" x1="186.28" y1="240.96" x2="94.13" y2="297.57" gradientUnits="userSpaceOnUse"><stop offset="0.04" stop-color="#a5422d"/><stop offset="0.99" stop-color="#6a2e25"/></linearGradient><radialGradient id="radial-gradient-40" cx="139.86" cy="362.42" r="42.58" gradientTransform="translate(0 5.07) scale(1 0.78)" xlink:href="#radial-gradient-26"/><radialGradient id="radial-gradient-41" cx="139.86" cy="288.05" r="42.5" xlink:href="#radial-gradient-17"/><radialGradient id="radial-gradient-42" cx="140.38" cy="190.86" r="21.42" xlink:href="#radial-gradient-17"/><linearGradient id="linear-gradient-21" x1="139.86" y1="219.81" x2="139.86" y2="157.74" xlink:href="#linear-gradient-5"/><linearGradient id="linear-gradient-22" x1="131.77" y1="191.84" x2="157.01" y2="191.84" xlink:href="#linear-gradient-14"/><radialGradient id="radial-gradient-43" cx="142.37" cy="191.84" r="25.5" gradientTransform="translate(27.5) scale(0.8 1)" xlink:href="#radial-gradient-26"/><radialGradient id="radial-gradient-44" cx="139.86" cy="228.61" r="27.04" xlink:href="#radial-gradient-17"/><radialGradient id="radial-gradient-45" cx="139.85" cy="274.83" r="27.22" gradientTransform="translate(0 -1.33) scale(1 0.84)" xlink:href="#radial-gradient-33"/><radialGradient id="radial-gradient-46" cx="139.85" cy="274.83" r="27.6" gradientTransform="translate(0 13.72) scale(1 0.84)" xlink:href="#radial-gradient-26"/><linearGradient id="linear-gradient-23" x1="117.32" y1="244.74" x2="142.81" y2="244.74" xlink:href="#linear-gradient-5"/><radialGradient id="radial-gradient-47" cx="140.24" cy="146.08" r="20.11" gradientUnits="userSpaceOnUse"><stop offset="0" stop-color="#ffea72"/><stop offset="0.75" stop-color="#f4be52"/><stop offset="0.89" stop-color="#f4be52"/></radialGradient><radialGradient id="radial-gradient-48" cx="140.78" cy="156.55" r="10.63" xlink:href="#radial-gradient-17"/><radialGradient id="radial-gradient-49" cx="140.03" cy="146.08" r="20.11" gradientTransform="translate(13.24) scale(0.91 1)" xlink:href="#linear-gradient-9"/><linearGradient id="linear-gradient-24" x1="177.19" y1="158.47" x2="200.95" y2="158.47" gradientTransform="translate(16.72) scale(0.65 1)" xlink:href="#linear-gradient-5"/><radialGradient id="radial-gradient-50" cx="140.39" cy="150.82" r="12" xlink:href="#radial-gradient-33"/><linearGradient id="linear-gradient-25" x1="139.44" y1="290.65" x2="139.44" y2="302.92" gradientUnits="userSpaceOnUse"><stop offset="0.04" stop-color="#a5422d"/><stop offset="0.48" stop-color="#8a3929"/><stop offset="0.99" stop-color="#6a2e25"/></linearGradient><radialGradient id="radial-gradient-51" cx="139.28" cy="260.03" r="30.48" gradientUnits="userSpaceOnUse"><stop offset="0" stop-color="#ffffc3"/><stop offset="1" stop-color="#fff18d"/></radialGradient><linearGradient id="linear-gradient-26" x1="106.13" y1="273.91" x2="178.91" y2="243.44" gradientUnits="userSpaceOnUse"><stop offset="0.01" stop-color="#f6c054"/><stop offset="0.28" stop-color="#cda85a"/><stop offset="0.54" stop-color="#ffea72"/><stop offset="0.58" stop-color="#fff071"/><stop offset="0.59" stop-color="#fff171"/><stop offset="0.82" stop-color="#ffe05a"/><stop offset="0.96" stop-color="#ffd44a"/></linearGradient><linearGradient id="linear-gradient-27" x1="108.39" y1="282.76" x2="183.86" y2="251.15" xlink:href="#linear-gradient-26"/><linearGradient id="linear-gradient-28" x1="101.25" y1="265.95" x2="186.58" y2="230.22" xlink:href="#linear-gradient-26"/><linearGradient id="linear-gradient-29" x1="110.29" y1="246.98" x2="111.46" y2="248.66" gradientUnits="userSpaceOnUse"><stop offset="0" stop-color="#b8b3a6"/><stop offset="1" stop-color="#61563a"/></linearGradient><linearGradient id="linear-gradient-30" x1="167.18" y1="246.98" x2="168.34" y2="248.66" xlink:href="#linear-gradient-29"/><linearGradient id="linear-gradient-31" x1="110.29" y1="271.44" x2="111.46" y2="273.12" xlink:href="#linear-gradient-29"/><linearGradient id="linear-gradient-32" x1="167.18" y1="271.44" x2="168.34" y2="273.12" xlink:href="#linear-gradient-29"/><radialGradient id="radial-gradient-52" cx="139.31" cy="4.17" r="44.52" xlink:href="#radial-gradient-17"/><mask id="mask-3" x="133.83" y="162.47" width="13.51" height="18.53" maskUnits="userSpaceOnUse"><g transform="translate(0 15.05)"><path class="cls-4" d="M144.71,154.22c2.95,4.93,3.5,10,1.23,11.4s-6.52-1.52-9.48-6.45-3.5-10-1.23-11.4S141.75,149.29,144.71,154.22Z"/></g></mask><radialGradient id="radial-gradient-53" cx="375.3" cy="-41.69" r="7.57" gradientTransform="matrix(0.54, -0.33, 0.71, 1.18, -34.36, 328.45)" gradientUnits="userSpaceOnUse"><stop offset="0" stop-color="#ececd1"/><stop offset="1"/></radialGradient><mask id="mask-4" x="229.56" y="8.9" width="32.3" height="44.29" maskUnits="userSpaceOnUse"><g transform="translate(0 15.05)"><path class="cls-5" d="M255.56,10.1c7.07,11.78,8.38,24,2.94,27.24s-15.58-3.64-22.65-15.43-8.38-24-2.93-27.24S248.5-1.69,255.56,10.1Z"/></g></mask><radialGradient id="radial-gradient-54" cx="631.16" cy="-90.11" r="18.09" xlink:href="#radial-gradient-53"/><mask id="mask-5" x="19.3" y="17.92" width="32.37" height="44.39" maskUnits="userSpaceOnUse"><g transform="translate(0 15.05)"><path class="cls-6" d="M45.36,19.15c7.08,11.81,8.4,24,2.94,27.3S32.68,42.8,25.6,31,17.21,7,22.66,3.68,38.28,7.34,45.36,19.15Z"/></g></mask><radialGradient id="radial-gradient-55" cx="339.92" cy="-163.06" r="18.13" xlink:href="#radial-gradient-53"/><mask id="mask-6" x="137.49" y="0" width="86.69" height="40.04" maskUnits="userSpaceOnUse"><g transform="translate(0 15.05)"><path class="cls-7" d="M180.94-15c23.94.12,43.3,9.18,43.24,20.23S204.67,25.12,180.73,25s-43.3-9.18-43.24-20.24S157-15.17,180.94-15Z"/></g></mask><radialGradient id="radial-gradient-56" cx="944.72" cy="-29.07" r="31.52" gradientTransform="matrix(0, -0.64, 1.38, 0.01, 217.79, 605.17)" xlink:href="#radial-gradient-53"/><mask id="mask-7" x="165.83" y="4.91" width="30.01" height="30.22" maskUnits="userSpaceOnUse"><g transform="translate(0 15.05)"><path class="cls-8" d="M195.84,5a15,15,0,1,1-30,0,15,15,0,1,1,30,0Z"/></g></mask><radialGradient id="radial-gradient-57" cx="180.84" cy="23.69" r="14.3" gradientTransform="translate(0 -21.41) scale(1 1.11)" gradientUnits="userSpaceOnUse"><stop offset="0" stop-color="#ffefa1"/><stop offset="0.13" stop-color="#e5d791"/><stop offset="0.4" stop-color="#a39967"/><stop offset="0.79" stop-color="#3b3725"/><stop offset="1"/></radialGradient><radialGradient id="radial-gradient-58" cx="181.05" cy="23.69" r="1.98" gradientTransform="translate(0 -21.41) scale(1 1.11)" gradientUnits="userSpaceOnUse"><stop offset="0.51" stop-color="#fffccc"/><stop offset="0.56" stop-color="#faf7c8"/><stop offset="0.62" stop-color="#eae8bb"/><stop offset="0.69" stop-color="#d1cfa7"/><stop offset="0.76" stop-color="#aeac8b"/><stop offset="0.83" stop-color="#807f67"/><stop offset="0.91" stop-color="#49483a"/><stop offset="0.99" stop-color="#080807"/><stop offset="1"/></radialGradient><mask id="mask-8" x="135.17" y="230.63" width="30.01" height="30.22" maskUnits="userSpaceOnUse"><g transform="translate(0 15.05)"><path class="cls-9" d="M165.18,230.7a15,15,0,1,1-15-15.11A15.05,15.05,0,0,1,165.18,230.7Z"/></g></mask><radialGradient id="radial-gradient-59" cx="150.17" cy="226.31" r="14.3" xlink:href="#radial-gradient-57"/><radialGradient id="radial-gradient-60" cx="150.38" cy="226.31" r="1.98" xlink:href="#radial-gradient-58"/><mask id="mask-9" x="118.44" y="20.97" width="82.35" height="55.29" maskUnits="userSpaceOnUse"><g transform="translate(0 15.05)"><path class="cls-10" d="M168.91,12c22.15,9.55,35.94,27,30.81,38.86s-27.26,13.82-49.41,4.27-35.94-26.95-30.8-38.86S146.77,2.45,168.91,12Z"/></g></mask><radialGradient id="radial-gradient-61" cx="876.07" cy="-119.24" r="36.98" gradientTransform="matrix(0.25, -0.58, 1.08, 0.47, 68.62, 600.28)" xlink:href="#radial-gradient-53"/><mask id="mask-10" x="93.15" y="290.58" width="38.89" height="26.11" maskUnits="userSpaceOnUse"><g transform="translate(0 15.05)"><path class="cls-11" d="M117,278.41c10.46,4.51,17,12.73,14.55,18.35s-12.87,6.53-23.33,2-17-12.73-14.55-18.36S106.53,273.9,117,278.41Z"/></g></mask><radialGradient id="radial-gradient-62" cx="478.05" cy="-70.3" r="17.46" gradientTransform="matrix(0.25, -0.58, 1.08, 0.47, 68.62, 600.28)" xlink:href="#radial-gradient-53"/><mask id="mask-11" x="139.1" y="230.63" width="21.04" height="26.04" maskUnits="userSpaceOnUse"><g transform="translate(0 15.05)"><path class="cls-3" d="M157.18,224.08c4,6.74,3.93,14.23-.24,16.74s-10.84-.94-14.88-7.68-3.93-14.23.25-16.73S153.14,217.34,157.18,224.08Z"/></g></mask><radialGradient id="radial-gradient-63" cx="350.29" cy="6.51" r="10.35" gradientTransform="matrix(0.73, -0.44, 0.71, 1.18, -110.94, 374.39)" xlink:href="#radial-gradient-53"/><radialGradient id="radial-gradient-64" cx="151.18" cy="58.21" r="179.3" gradientUnits="userSpaceOnUse"><stop offset="0" stop-color="#ececbb"/><stop offset="1" stop-color="#784f58"/></radialGradient></defs><g class="cls-13"><g id="Layer_2" data-name="Layer 2"><g id="Layer_1-2" data-name="Layer 1"><g class="cls-14"><path class="cls-15" d="M279.72,304.23c0,9.11-62.62,16.49-139.86,16.49S0,313.34,0,304.23s62.61-16.48,139.86-16.48S279.72,295.13,279.72,304.23Z" transform="translate(0 15.05)"/></g><g class="cls-16"><path class="cls-17" d="M232,.32c-14.4-2.23-26.56,7.91-26.56,7.91s-14.2,12.57-6.9,16.63S216.22,9.65,228.39,13.3s9.94,24.53-4.87,45.62-41.16,31-41.16,31l-5.48,12.77a187.2,187.2,0,0,0,50.13-31,82.22,82.22,0,0,0,17.43-21.09C262.23,19.45,244.82,2.3,232,.32Z" transform="translate(0 15.05)"/><path class="cls-18" d="M223.55,58.92c14.8-21.09,17-42,4.86-45.62S204,32.69,196.72,28.63c-2-1.1-.48-6.59,0-8.51.28.25-2.41,4.77-2.07,5.05,7.68,6.25,22.23-18.46,35.57-13.3,10.08,3.9,11.37,23-5.3,46.71-14.5,20.66-38,31-44.06,33.59L182.38,90S208.74,80,223.55,58.92Z" transform="translate(0 15.05)"/><path class="cls-19" d="M229.93,5c-6.82-1-13.53.81-19.41,4.26C207.56,11,196,20.46,196,20.87l.61,6.25S215,9.65,226.48,10.06c10.75.38,20.83,14,6.81,40.69a69.27,69.27,0,0,1-13.73,18.06c-7.14,6.79-18.24,17.06-35.76,25.45-.23.63-.46,1.26-.67,1.89,0,.18-.12.35-.18.52,19.94-8.86,32.79-19.64,41-26.79a74.91,74.91,0,0,0,15.84-19.17C255.92,22.36,241.54,6.77,229.93,5Z" transform="translate(0 15.05)"/><g class="cls-20"><path class="cls-19" d="M229.93,5c-6.82-1-13.53.81-19.41,4.26C207.56,11,196,20.46,196,20.87l.61,6.25S215,9.65,226.48,10.06c10.75.38,20.83,14,6.81,40.69a69.27,69.27,0,0,1-13.73,18.06c-7.14,6.79-18.24,17.06-35.76,25.45-.23.63-.46,1.26-.67,1.89,0,.18-.12.35-.18.52,19.94-8.86,32.79-19.64,41-26.79a74.91,74.91,0,0,0,15.84-19.17C255.92,22.36,241.54,6.77,229.93,5Z" transform="translate(0 15.05)"/></g><path class="cls-21" d="M56.2,58.92c-14.8-21.09-17-42-4.87-45.62S73.84,28.91,81.14,24.86,74.25,8.23,74.25,8.23,62.08-1.91,47.68.32C34.91,2.3,17.5,19.45,35.29,50.65A82.38,82.38,0,0,0,52.71,71.74a187.2,187.2,0,0,0,50.13,31L97.36,90S71,80,56.2,58.92Z" transform="translate(0 15.05)"/><path class="cls-22" d="M56.2,58.92c-14.8-21.09-17-42-4.87-45.62S73.84,28.91,81.14,24.86,74.25,8.23,74.25,8.23,62.08-1.91,47.68.32C34.91,2.3,17.5,19.45,35.29,50.65A82.38,82.38,0,0,0,52.71,71.74a187.2,187.2,0,0,0,50.13,31L97.36,90S71,80,56.2,58.92Z" transform="translate(0 15.05)"/><g class="cls-23"><path class="cls-24" d="M97.9,91.2,97.36,90A107.59,107.59,0,0,1,69.11,72.86,108.06,108.06,0,0,0,97.9,91.2Z" transform="translate(0 15.05)"/><path class="cls-25" d="M37.48,52.57C19.69,21.38,37.1,4.23,49.87,2.25,62.12.35,72.73,7.39,75.63,9.53c-.83-.81-1.38-1.3-1.38-1.3S62.08-1.91,47.68.32C34.91,2.3,17.5,19.45,35.29,50.65A82.38,82.38,0,0,0,52.71,71.74c.42.37.88.75,1.32,1.14A81.78,81.78,0,0,1,37.48,52.57Z" transform="translate(0 15.05)"/><path class="cls-26" d="M242.25,52.57c17.79-31.19.38-48.34-12.4-50.32C217.6.35,207,7.39,204.1,9.53c.82-.81,1.38-1.3,1.38-1.3S217.64-1.91,232,.32c12.78,2,30.19,19.13,12.4,50.33A82.22,82.22,0,0,1,227,71.74l-1.32,1.14A82,82,0,0,0,242.25,52.57Z" transform="translate(0 15.05)"/></g><path class="cls-27" d="M56.2,58.92c-14.8-21.09-17-42-4.87-45.62S75.73,32.69,83,28.63c2-1.1.48-6.59,0-8.51-.29.25,2.41,4.77,2.06,5.05-7.67,6.25-22.22-18.46-35.56-13.3-10.09,3.9-11.38,23,5.29,46.71,14.5,20.66,38,31,44.07,33.59L97.36,90S71,80,56.2,58.92Z" transform="translate(0 15.05)"/><path class="cls-28" d="M49.8,5c6.81-1,13.53.81,19.4,4.26,3,1.74,14.53,11.23,14.49,11.64l-.6,6.25S64.74,9.65,53.25,10.06c-10.75.38-20.84,14-6.82,40.69A69.49,69.49,0,0,0,60.16,68.81C67.31,75.6,78.4,85.87,95.92,94.26c.23.63.46,1.26.67,1.89.06.18.13.35.19.52C76.83,87.81,64,77,55.82,69.88A74.51,74.51,0,0,1,40,50.71C23.81,22.36,38.18,6.77,49.8,5Z" transform="translate(0 15.05)"/><path class="cls-29" d="M49.8,5c6.81-1,13.53.81,19.4,4.26,3,1.74,14.53,11.23,14.49,11.64l-.6,6.25S64.74,9.65,53.25,10.06c-10.75.38-20.84,14-6.82,40.69A69.49,69.49,0,0,0,60.16,68.81C67.31,75.6,78.4,85.87,95.92,94.26c.23.63.46,1.26.67,1.89.06.18.13.35.19.52C76.83,87.81,64,77,55.82,69.88A74.51,74.51,0,0,1,40,50.71C23.81,22.36,38.18,6.77,49.8,5Z" transform="translate(0 15.05)"/><path class="cls-30" d="M80.34,6.82c-1,8.24-8.72,88.58,52.61,134.34h13.82C208.1,95.4,200.35,15.06,199.38,6.82Z" transform="translate(0 15.05)"/><path class="cls-31" d="M80.34,6.82c-1,8.24-8.72,88.58,52.61,134.34h13.82C208.1,95.4,200.35,15.06,199.38,6.82Z" transform="translate(0 15.05)"/><g class="cls-23"><path class="cls-32" d="M83.35,6.82h-3c-1,8.24-8.72,88.58,52.61,134.34h.35C75.06,95.4,82.42,15.06,83.35,6.82Z" transform="translate(0 15.05)"/><path class="cls-33" d="M199.38,6.82h-3c.92,8.24,8.28,88.58-50,134.34h.35C208.1,95.4,200.35,15.06,199.38,6.82Z" transform="translate(0 15.05)"/></g><path class="cls-34" d="M97.6,6.82C96.91,15.06,91.41,95.4,135,141.16h9.82c43.55-45.76,38-126.1,37.35-134.34Z" transform="translate(0 15.05)"/><path class="cls-35" d="M93.11,6.82c-.77,8.24-6.86,88.58,41.32,134.34h10.86C193.47,95.4,187.38,15.06,186.62,6.82Z" transform="translate(0 15.05)"/><path class="cls-36" d="M178.17,6.82H105.56c-.63,8.24-5.58,88.58,33.66,134.34h5.29C183.75,95.4,178.79,15.06,178.17,6.82Z" transform="translate(0 15.05)"/><path class="cls-37" d="M170.38,6.82h-57c-.49,8.24-4.38,88.58,26.44,134.34h4.16C174.77,95.4,170.87,15.06,170.38,6.82Z" transform="translate(0 15.05)"/><path class="cls-38" d="M159.71,94.08c12.66-34.49,14-73,13.6-78.08l-39.23,6.08C136.66,44.33,145.56,61.2,159.71,94.08Z" transform="translate(0 15.05)"/><path class="cls-39" d="M86.93,22.08h-.55c-.39,5.05,1,42.05,17.84,75.47,11-25.6,13.42-43.59,15.17-60.8C117.54,36.15,97.9,28.18,86.93,22.08Z" transform="translate(0 15.05)"/><path class="cls-40" d="M156.87,6.82H128.74c-.24,8.24-2.16,88.58,13,134.34h2.05C159,95.4,157.11,15.06,156.87,6.82Z" transform="translate(0 15.05)"/><path class="cls-41" d="M120,61.74c-.38,5.05,1.42,39.25,18.25,72.67-.79-33.82,1.85-48.78,3.6-66C140,67.82,120,61.74,120,61.74Z" transform="translate(0 15.05)"/><path class="cls-42" d="M80.34,6.82c-.17,1.48-.56,5.32-.73,10.84,10.86-1.43,44.08-5.61,60.25-5.61s49.4,4.18,60.26,5.61c-.18-5.52-.57-9.36-.74-10.84Z" transform="translate(0 15.05)"/><path class="cls-43" d="M196.85,0H81.77a5.17,5.17,0,0,0-4.91,7l0,.08A2.24,2.24,0,0,0,79,8.35H199.67a2.22,2.22,0,0,0,2.06-1.3.2.2,0,0,1,0-.08A5.17,5.17,0,0,0,196.85,0Z" transform="translate(0 15.05)"/><rect class="cls-44" x="160.99" y="15.05" width="24.77" height="8.35"/><rect class="cls-45" x="177.99" y="15.05" width="7.76" height="8.35"/><path class="cls-46" d="M152.92,0H103c-.37,2.79-.77,5.59-1.3,8.35H153C153.05,5.56,153.07,2.78,152.92,0Z" transform="translate(0 15.05)"/><path class="cls-47" d="M142.15,1.6H126.9c-.08,2.26-.27,4.49-.35,6.75h15.87C142.37,6.1,142.25,3.85,142.15,1.6Z" transform="translate(0 15.05)"/><rect class="cls-48" x="95.13" y="16.65" width="23.67" height="6.74"/><path class="cls-49" d="M150.55,72.23C102.86,70.42,87.45,44.12,87,43.56c1,25.61,8.68,69.2,46.74,97.6h12.12c32.17-24,42.66-58.84,45.72-84.52C184.35,67,157.37,72.49,150.55,72.23Z" transform="translate(0 15.05)"/><g class="cls-50"><polygon class="cls-51" points="167.88 39.9 179.63 30.25 170.42 42.35 189.99 43.55 170.48 45.87 189.99 67.48 168.03 48.41 166.55 63.53 164.51 48.48 154.02 57.35 161.97 46.03 144.1 44.54 161.91 42.5 148.7 27.2 164.35 39.96 165.84 12.75 167.88 39.9"/></g><polygon class="cls-52" points="157.57 156.43 122.22 156.43 125.43 150.21 154.36 150.21 157.57 156.43"/><path class="cls-53" d="M156.4,141.39h1.17l-3.21-6.22h-1C153.78,136,156.13,140.66,156.4,141.39Z" transform="translate(0 15.05)"/><path class="cls-54" d="M126.37,135.17h-.94l-3.21,6.22h1.1C123.64,140.8,125.7,136.73,126.37,135.17Z" transform="translate(0 15.05)"/><path class="cls-55" d="M149.27,141.39h3.49c-1-1.23-2.83-5.67-3-6.22h-1.91A52.59,52.59,0,0,0,149.27,141.39Z" transform="translate(0 15.05)"/><path class="cls-56" d="M138.25,136c0-.26.11-.53.17-.79H134.5a40.27,40.27,0,0,1-2.1,6.22h5.35A47,47,0,0,1,138.25,136Z" transform="translate(0 15.05)"/><path class="cls-57" d="M141.51,135.17h2.91c.49,1.3.92,2.63,1.44,3.91q.46,1.17,1,2.31h-5.24Q141.57,138.27,141.51,135.17Z" transform="translate(0 15.05)"/><path class="cls-58" d="M132.91,135.17h-4a44.21,44.21,0,0,1-2.7,6.19l0,0h4.7C130.91,140.84,132.35,135.17,132.91,135.17Z" transform="translate(0 15.05)"/><path class="cls-59" d="M139.9,141.39H122.22a39.6,39.6,0,0,1,7.2,4.9c2.48,2.39,2.14,11.48,10.48,11.48s8-9.09,10.47-11.48a40,40,0,0,1,7.2-4.9Z" transform="translate(0 15.05)"/><path class="cls-60" d="M139.9,141.39H126.82a30.5,30.5,0,0,1,5.33,4.9c1.83,2.39,3.39,15.84,7.75,11.48,1.63-1.63,5.91-9.09,7.74-11.48a30.78,30.78,0,0,1,5.34-4.9Z" transform="translate(0 15.05)"/><path class="cls-61" d="M148.87,141.39c-1.12,1.28-2.88,3.2-3.54,5.37-1.09,3.55-2.23,7.77-5.58,11,.05,0,.1,0,.15,0,4.42-1.2,5.91-9.09,7.74-11.48a30.78,30.78,0,0,1,5.34-4.9Z" transform="translate(0 15.05)"/><path class="cls-62" d="M145.53,141.39h-11.8c.07.3.16.6.22.92.44,2.3,2.27,4.45,3.17,6.65a51.11,51.11,0,0,1,1.89,5.55,27.84,27.84,0,0,0,2.85-3.31C142.56,146.19,144,143.3,145.53,141.39Z" transform="translate(0 15.05)"/><path class="cls-63" d="M141.51,141.39h-10.3a72.51,72.51,0,0,1,4.39,8,19,19,0,0,0,4.6,5A36.72,36.72,0,0,1,141.51,141.39Z" transform="translate(0 15.05)"/><path class="cls-64" d="M122.59,141.59a37.48,37.48,0,0,1,6.83,4.7c2,2,2.18,8.43,6.78,10.69,1,1.63,2.16,2.33,3.7.79,8.33,0,8-9.09,10.47-11.48a37.48,37.48,0,0,1,6.83-4.7Z" transform="translate(0 15.05)"/><path class="cls-65" d="M122.22,141.39s14-2,35.35-.23C157.57,141.16,143.45,143.13,122.22,141.39Z" transform="translate(0 15.05)"/><path class="cls-66" d="M122.22,141.39s14-2,35.35-.23C157.57,141.16,143.45,143.13,122.22,141.39Z" transform="translate(0 15.05)"/><path class="cls-67" d="M155.49,137.35l-1.13-2.18H125.43l-.94,1.83C136,139,143,139.26,155.49,137.35Z" transform="translate(0 15.05)"/><path class="cls-68" d="M191.57,297.09V251.61c0-9-6.25-16.2-14-16.2H102.12c-7.71,0-14,7.25-14,16.2v45.48Z" transform="translate(0 15.05)"/><path class="cls-69" d="M82.5,286.2l-2.58,6.33H199.8l-2.58-6.33a4.2,4.2,0,0,0-3.9-2.63H86.4A4.22,4.22,0,0,0,82.5,286.2Z" transform="translate(0 15.05)"/><path class="cls-70" d="M197.22,286.2a4.2,4.2,0,0,0-3.9-2.63H86.4a4.22,4.22,0,0,0-3.9,2.63l-2.58,6.33h1.41l2.52-5.33A4.15,4.15,0,0,1,87.66,285H192.07a4.16,4.16,0,0,1,3.81,2.21l2.51,5.33h1.41Z" transform="translate(0 15.05)"/><path class="cls-71" d="M144.39,156.69h-9S131.6,207.48,112.93,227H166.8C148.12,207.48,144.39,156.69,144.39,156.69Z" transform="translate(0 15.05)"/><path class="cls-72" d="M144.39,156.69h-9S131.6,207.48,112.93,227H166.8C148.12,207.48,144.39,156.69,144.39,156.69Z" transform="translate(0 15.05)"/><path class="cls-71" d="M143.87,156.69h-8S132.55,207.48,116,227H163.7C147.17,207.48,143.87,156.69,143.87,156.69Z" transform="translate(0 15.05)"/><path class="cls-73" d="M143.36,156.69h-7S133.47,207.48,119,227h41.69C146.26,207.48,143.36,156.69,143.36,156.69Z" transform="translate(0 15.05)"/><path class="cls-74" d="M141.71,156.69h-2.34s-1.94,50.79-11.62,70.29h27.93C146,207.48,141.71,156.69,141.71,156.69Z" transform="translate(0 15.05)"/><path class="cls-75" d="M141.71,156.69h-1.08s-.9,50.79-5.39,70.29h12.94C143.7,207.48,141.71,156.69,141.71,156.69Z" transform="translate(0 15.05)"/><path class="cls-76" d="M133.82,169.56c4.33,2.29,10,1.11,12.15.46-1.18-7.93-1.58-13.33-1.58-13.33h-9S134.92,162,133.82,169.56Z" transform="translate(0 15.05)"/><path class="cls-77" d="M165.92,221.81H113.81s-11.58.93-11.58,13.6h75.26C177.49,222.74,165.92,221.81,165.92,221.81Z" transform="translate(0 15.05)"/><path class="cls-78" d="M165.92,221.81H113.81s-11.58.93-11.58,13.6h75.26C177.49,222.74,165.92,221.81,165.92,221.81Z" transform="translate(0 15.05)"/><path class="cls-77" d="M164.49,224H115.23s-10.94.78-10.94,11.43h71.14C175.43,224.76,164.49,224,164.49,224Z" transform="translate(0 15.05)"/><path class="cls-79" d="M139.86,224H115.23a14.8,14.8,0,0,0-3.75.92c-.78,2.63-3.09,10.51-2.77,10.51h54.42c-.79-1.85-3-10.16-3.59-11.43Z" transform="translate(0 15.05)"/><polygon class="cls-80" points="146.09 250.46 154.26 250.46 151.25 239.02 146.41 239.02 146.09 250.46"/><polygon class="cls-81" points="119.24 239.02 117.32 250.46 142.81 250.46 142.81 239.02 119.24 239.02"/><path class="cls-82" d="M148.49,150.53H131.23a8.67,8.67,0,0,0-3.19,5.59c-.65,5.43,4.62,10.29,11.82,10.29s12.47-4.86,11.83-10.29A8.68,8.68,0,0,0,148.49,150.53Z" transform="translate(0 15.05)"/><path class="cls-83" d="M148.49,150.53H131.23a8.67,8.67,0,0,0-3.19,5.59c-.67,5.6,4.61,10.34,11.82,10.29s12.46-4.94,11.83-10.29A8.68,8.68,0,0,0,148.49,150.53Z" transform="translate(0 15.05)"/><path class="cls-84" d="M147.69,150.53H132a8.93,8.93,0,0,0-2.9,5.59c-.58,5.43,4.19,10.29,10.72,10.29s11.31-4.86,10.72-10.29A8.87,8.87,0,0,0,147.69,150.53Z" transform="translate(0 15.05)"/><path class="cls-85" d="M145.48,150.53H134.24a10.44,10.44,0,0,0-2.08,5.59c-.42,5.43,3,10.29,7.7,10.29s8.12-4.86,7.7-10.29A10.36,10.36,0,0,0,145.48,150.53Z" transform="translate(0 15.05)"/><path class="cls-86" d="M143.61,150.53h-6.14a16.34,16.34,0,0,0-1.1,5.59c-.18,5.43,1.72,10.29,4.28,10.29s4.4-4.86,4.13-10.29A16.48,16.48,0,0,0,143.61,150.53Z" transform="translate(0 15.05)"/><path class="cls-87" d="M151.69,156.12c0-.11-.06-.2-.07-.31-6.34,6.49-16.36,5.7-23.64,1.23,0,6.58,7,9.83,12.52,9.34.14,0,.27,0,.4,0,6.68-.46,11.4-5.09,10.79-10.24Z" transform="translate(0 15.05)"/><path class="cls-88" d="M206.29,302.44l-1.47-7.15a3.54,3.54,0,0,0-3.3-2.76H77.35a3.55,3.55,0,0,0-3.3,2.76l-1.47,7.15Z" transform="translate(0 15.05)"/><path class="cls-89" d="M204.82,295.29a3.54,3.54,0,0,0-3.3-2.76H77.35a3.55,3.55,0,0,0-3.3,2.76l-1.47,7.15h2L76,296.62a3.35,3.35,0,0,1,3.2-2.24H199.66a3.34,3.34,0,0,1,3.2,2.24l1.43,5.82h2Z" transform="translate(0 15.05)"/><path class="cls-90" d="M179.21,269.17V250.89a7.1,7.1,0,0,1-7.11-7.1H106.46a7.1,7.1,0,0,1-7.11,7.1v18.28a7.1,7.1,0,0,1,7.11,7.1H172.1A7.1,7.1,0,0,1,179.21,269.17Z" transform="translate(0 15.05)"/><path class="cls-91" d="M178,268.33v-16.6a6.68,6.68,0,0,1-6.89-6.45H107.45a6.67,6.67,0,0,1-6.89,6.45v16.6a6.67,6.67,0,0,1,6.89,6.45H171.1A6.68,6.68,0,0,1,178,268.33Z" transform="translate(0 15.05)"/><path class="cls-92" d="M173.41,247.88a7,7,0,0,1-1.31-4.09h-4.61c-4.16,11.15-14.59,32.48-14.59,32.48h4.93S173,248.91,173.41,247.88Z" transform="translate(0 15.05)"/><path class="cls-93" d="M120.31,243.79,105.1,272.13a7,7,0,0,1,1.36,4.14h4l19.59-32.48Z" transform="translate(0 15.05)"/><path class="cls-94" d="M112.6,247.76a1.77,1.77,0,1,1-1.76-1.76A1.76,1.76,0,0,1,112.6,247.76Z" transform="translate(0 15.05)"/><path class="cls-95" d="M112.14,247.76a1.31,1.31,0,1,1-1.3-1.3A1.31,1.31,0,0,1,112.14,247.76Z" transform="translate(0 15.05)"/><path class="cls-94" d="M169.49,247.76a1.77,1.77,0,1,1-1.77-1.76A1.77,1.77,0,0,1,169.49,247.76Z" transform="translate(0 15.05)"/><path class="cls-96" d="M169,247.76a1.31,1.31,0,1,1-1.31-1.3A1.31,1.31,0,0,1,169,247.76Z" transform="translate(0 15.05)"/><path class="cls-94" d="M112.6,272.23a1.77,1.77,0,1,1-1.76-1.77A1.76,1.76,0,0,1,112.6,272.23Z" transform="translate(0 15.05)"/><path class="cls-97" d="M112.14,272.23a1.31,1.31,0,0,1-2.61,0,1.31,1.31,0,1,1,2.61,0Z" transform="translate(0 15.05)"/><path class="cls-94" d="M169.49,272.23a1.77,1.77,0,1,1-1.77-1.77A1.76,1.76,0,0,1,169.49,272.23Z" transform="translate(0 15.05)"/><path class="cls-98" d="M169,272.23a1.31,1.31,0,1,1-1.31-1.31A1.31,1.31,0,0,1,169,272.23Z" transform="translate(0 15.05)"/><path class="cls-99" d="M201.73,7.05a.2.2,0,0,1,0-.08,5.17,5.17,0,0,0-4.92-7H81.77a5.17,5.17,0,0,0-4.91,7l0,.08A2.24,2.24,0,0,0,79,8.35h.79a2.29,2.29,0,0,1-2-1,.25.25,0,0,0,0-.07C76.32,4.54,79,1.6,82.52,1.6H196.1c3.56,0,6.21,2.94,4.85,5.63l0,.07a2.3,2.3,0,0,1-2,1h.79A2.22,2.22,0,0,0,201.73,7.05Z" transform="translate(0 15.05)"/><g class="cls-100"><path class="cls-101" d="M144.71,154.22c2.95,4.93,3.5,10,1.23,11.4s-6.52-1.52-9.48-6.45-3.5-10-1.23-11.4S141.75,149.29,144.71,154.22Z" transform="translate(0 15.05)"/></g><g class="cls-102"><path class="cls-103" d="M255.56,10.1c7.07,11.78,8.38,24,2.94,27.24s-15.58-3.64-22.65-15.43-8.38-24-2.93-27.24S248.5-1.69,255.56,10.1Z" transform="translate(0 15.05)"/></g><g class="cls-104"><path class="cls-105" d="M45.36,19.15c7.08,11.81,8.4,24,2.94,27.3S32.68,42.8,25.6,31,17.21,7,22.66,3.68,38.28,7.34,45.36,19.15Z" transform="translate(0 15.05)"/></g><g class="cls-106"><path class="cls-107" d="M180.94-15c23.94.12,43.3,9.18,43.24,20.23S204.67,25.12,180.73,25s-43.3-9.18-43.24-20.24S157-15.17,180.94-15Z" transform="translate(0 15.05)"/></g><g class="cls-108"><path class="cls-109" d="M195.84,5a15,15,0,1,1-30,0,15,15,0,1,1,30,0Z" transform="translate(0 15.05)"/></g><g class="cls-110"><path class="cls-111" d="M183.09,5A2,2,0,1,1,179,5a2,2,0,1,1,4.09,0Z" transform="translate(0 15.05)"/></g><g class="cls-112"><path class="cls-113" d="M165.18,230.7a15,15,0,1,1-15-15.11A15.05,15.05,0,0,1,165.18,230.7Z" transform="translate(0 15.05)"/></g><g class="cls-110"><path class="cls-114" d="M152.43,230.7a2.05,2.05,0,1,1-2.05-2.14A2.09,2.09,0,0,1,152.43,230.7Z" transform="translate(0 15.05)"/></g><g class="cls-115"><path class="cls-116" d="M168.91,12c22.15,9.55,35.94,27,30.81,38.86s-27.26,13.82-49.41,4.27-35.94-26.95-30.8-38.86S146.77,2.45,168.91,12Z" transform="translate(0 15.05)"/></g><g class="cls-117"><path class="cls-118" d="M117,278.41c10.46,4.51,17,12.73,14.55,18.35s-12.87,6.53-23.33,2-17-12.73-14.55-18.36S106.53,273.9,117,278.41Z" transform="translate(0 15.05)"/></g><g class="cls-119"><path class="cls-120" d="M157.18,224.08c4,6.74,3.93,14.23-.24,16.74s-10.84-.94-14.88-7.68-3.93-14.23.25-16.73S153.14,217.34,157.18,224.08Z" transform="translate(0 15.05)"/></g><path class="cls-121" d="M239.45,3A21.36,21.36,0,0,0,232,.32a27.84,27.84,0,0,0-5.27-.3c-.86,0-1.7.1-2.53.2a40.25,40.25,0,0,0-18.76,8A49.81,49.81,0,0,0,200,14.12c0-.34,0-.71-.06-1-.11-1.89-.24-3.38-.35-4.53a1.23,1.23,0,0,0,0-.2h.13a2.22,2.22,0,0,0,2.06-1.3.2.2,0,0,1,0-.08,5.17,5.17,0,0,0-4.92-7H81.77a5.17,5.17,0,0,0-4.91,7l0,.08A2.24,2.24,0,0,0,79,8.35h1.22c0,.06,0,.15,0,.22-.13,1.34-.28,3.21-.4,5.55a49.81,49.81,0,0,0-5.51-5.89A41.11,41.11,0,0,0,62.42,1.84,33.25,33.25,0,0,0,53,0a27.94,27.94,0,0,0-5.28.3,18.89,18.89,0,0,0-2.44.55c-.41.12-.82.26-1.24.41A22.41,22.41,0,0,0,40.27,3c-.41.24-.82.49-1.22.76a24.47,24.47,0,0,0-3.49,2.8c-.36.35-.73.72-1.08,1.11-4.21,4.59-7.16,11.26-6.74,20,.28,5.81,2.07,12.52,6,20.11.49,1,1,1.91,1.57,2.89,1.13,2,2.36,3.93,3.67,5.81a81.28,81.28,0,0,0,6.4,8.05,86.47,86.47,0,0,0,7.35,7.23A186.41,186.41,0,0,0,98,100.58a124.14,124.14,0,0,0,27.63,34.59h-.16l-.94,1.83h0l-2.27,4.39.37.2.51.29.07,0c.21.11.43.24.68.39l0,0,.72.43.18.11.8.51.2.13.86.58,0,0,.85.6a1.09,1.09,0,0,0,.17.13c.28.21.55.42.81.64l.15.13c.26.22.52.45.75.67a4.38,4.38,0,0,1,.63.84c0,.07.08.13.11.2a10.48,10.48,0,0,1,.5,1.06c.05.14.11.29.17.44l.26.69c.12.33.25.67.37,1h-.23a8.67,8.67,0,0,0-3.19,5.59,7.19,7.19,0,0,0,0,.92h0s0,0,0,0a8.07,8.07,0,0,0,.07,1.11c.46,3.6,3.13,6.05,6.32,7.3-.16,1.27-.35,2.64-.56,4.09h0c-2.12,14.49-6.9,37.85-16.76,52.25h-3.25s-11.58.93-11.58,13.6h-.11c-7.71,0-14,7.25-14,16.2v32H86.4a4.22,4.22,0,0,0-3.9,2.63l-2.58,6.33H77.35a3.55,3.55,0,0,0-3.3,2.76l-1.47,7.15H206.29l-1.47-7.15a3.54,3.54,0,0,0-3.3-2.76H199.8l-2.58-6.33a4.2,4.2,0,0,0-3.9-2.63h-1.75v-32c0-9-6.25-16.2-14-16.2h-.11c0-12.67-11.57-13.6-11.57-13.6h-3.26C152.9,207.55,148.12,184.53,146,170h0c-.22-1.5-.42-2.91-.59-4.21a2.64,2.64,0,0,0,.56-.19,2.49,2.49,0,0,0,.85-1l.61-.37,0,0a9.55,9.55,0,0,0,.8-.57l.09-.07.67-.58.13-.13c.19-.19.37-.38.54-.58l.17-.2c.15-.18.29-.37.43-.56l.18-.28c.11-.18.23-.35.33-.54s.11-.23.17-.35.17-.33.24-.51l.15-.42c.05-.16.11-.32.15-.48a4,4,0,0,0,.11-.5l.09-.43c0-.21,0-.41,0-.62s0-.23,0-.35a8.15,8.15,0,0,0-.05-1h0v0a8.7,8.7,0,0,0-3.2-5.57h-.16c.66-1.78,1.18-3.41,2-4.24.23-.22.49-.45.76-.68l.14-.12c.26-.21.53-.43.81-.64l.18-.13.85-.61,0,0,.88-.59.19-.12.8-.51.18-.1.72-.44,0,0,.68-.39.07,0,.51-.29.37-.2-.1-.21.1,0h-.11l-3.1-6h-.22a124.32,124.32,0,0,0,27.63-34.59A186.52,186.52,0,0,0,227,71.74q2.6-2.26,5-4.72a84.56,84.56,0,0,0,6.74-7.79c.69-.91,1.36-1.83,2-2.77,1.3-1.88,2.53-3.82,3.67-5.81.55-1,1.07-1.94,1.56-2.89a54.07,54.07,0,0,0,5.52-15.84C253.93,17.24,247.19,7.53,239.45,3ZM90.21,86.71c-1.2-.61-2.51-1.3-3.91-2.07l-.11-.06c-1.41-.78-2.9-1.65-4.45-2.6l-.12-.08c-1.55-1-3.15-2-4.78-3.12l-.17-.12c-1.62-1.12-3.26-2.33-4.9-3.62l-.24-.19c-.81-.64-1.62-1.3-2.42-2h0a75.42,75.42,0,0,1-12.91-14c-7.4-10.54-11.66-21-12.55-29.35A20.56,20.56,0,0,1,44.88,19,11.16,11.16,0,0,1,46,17.06a9.83,9.83,0,0,1,5.33-3.76c10.44-3.13,20.91,13.34,28.29,15.56.49,15.43,3.14,36.91,12.08,58.58l-1.39-.68A.31.31,0,0,0,90.21,86.71ZM79.07,25.42l.47-.05v.23Zm121.11-.05.49.05-.49.19ZM194,70.18c1-3.48,1.79-6.91,2.49-10.26s1.28-6.64,1.76-9.82.85-6.26,1.13-9.22c.42-4.3.66-8.33.78-12,7.26-2.15,17.53-18.15,27.8-15.68l.48.12c12.17,3.65,9.94,24.53-4.87,45.62C213,73.94,196.59,83.3,188,87.44A150.24,150.24,0,0,0,194,70.18Z" transform="translate(0 15.05)"/></g></g></g></g></svg>